<svg xmlns="http://www.w3.org/2000/svg" width="432" height="349" viewBox="0 0 432 349">
<defs>
    <style>
      .cls-1 {
        fill: #951e1f;
        fill-rule: evenodd;
      }
    </style>
  </defs>
  <path id="LOGO" class="cls-1" d="M181.8,7948a38.959,38.959,0,0,1,11.949-28.01v-0.03a41.6,41.6,0,0,1,57.684,0h0.012A38.975,38.975,0,0,1,263.406,7948H249.188a25.385,25.385,0,0,0-7.792-18.3v-0.01a27.227,27.227,0,0,0-37.6.01h0a25.419,25.419,0,0,0-7.782,18.3H181.8Zm228.788,0a38.886,38.886,0,0,1,11.96-28.01v-0.03a41.592,41.592,0,0,1,57.674,0h0.022A38.924,38.924,0,0,1,492.184,7948h-14.2a25.43,25.43,0,0,0-7.8-18.3v-0.01a27.187,27.187,0,0,0-37.573.01H432.57a25.57,25.57,0,0,0-7.762,18.3H410.591ZM296.2,7948a38.929,38.929,0,0,1,11.96-28.01v-0.03a41.619,41.619,0,0,1,57.7,0A38.969,38.969,0,0,1,377.79,7948H363.572a25.454,25.454,0,0,0-7.772-18.3,27.213,27.213,0,0,0-37.6,0h-0.01a25.449,25.449,0,0,0-7.771,18.3H296.2Zm59.212-126.14-8.184,12.09,22.338,4.47-22.952,4.59,5.7,11.48-10.834-6.11-4.5,22.91-4.635-23.67-13.792,7.37,8.2-12.1-22.338-4.47,22.954-4.6-5.7-11.47,10.825,6.11,4.485-22.89,4.653,23.69,13.771-7.4h0Zm128.882-13.38v-30.86a10.594,10.594,0,0,0,8.185-10.18,10.846,10.846,0,0,0-21.682,0,10.593,10.593,0,0,0,8.155,10.18v1.34h-59.87v-59.64H449.77l-62.6-26.1-24.6-36.13-25.222-37.08a10.824,10.824,0,1,0-.709,0l-25.223,37.08-24.595,36.13-62.6,26.1h30.691v59.64H195.039v-1.34a10.489,10.489,0,0,0-2.68-20.71,10.7,10.7,0,0,0-10.848,10.53,10.594,10.594,0,0,0,8.186,10.18v30.86L121,7868.93v25.86h19.391V7948H151.01v-53.21c48.536,0,97.4,0,145.85.02-7.538-8.37-21.379-19.82-26.854-39.18-4.787-16.91,2.444-32.73,21.85-49.75,7.925-6.95,16.773-13.08,24.576-18.48L317,7787c9.711-6.72,16.216-11.33,19.991-15.51,3.774,4.18,10.279,8.79,19.99,15.51l0.571,0.4c7.8,5.4,16.651,11.53,24.576,18.48,19.407,17.02,26.638,32.84,21.85,49.75-5.475,19.36-19.317,30.81-26.853,39.18,48.449-.02,97.312-0.02,145.849-0.02V7948H533.6v-53.21h19.391v-25.86Zm-15.32-22.1h8.536v22.1H468.97v-22.1Zm-16.6,0h8.543v22.1h-8.543v-22.1Zm-16.115,0H444.8v22.1h-8.544v-22.1Zm-16.6,0h8.566v22.11h-2.342l-6.224-6.28v-15.83Zm-150.494-63.9H404.83v53.95H386.01c-17.736-14.3-38.3-28.79-45.771-44.27v-0.05l-3.245-6.62-3.244,6.62v0.05c-7.476,15.48-28.037,29.97-45.774,44.27H269.157v-53.95Zm141.98,63.9v8.2l-8.554-7.14v-1.06h8.554Zm-148.287,0H271.4v1.06l-8.555,7.14v-8.2Zm-17.08,0h8.565v15.83l-6.222,6.28H245.77v-22.11Zm-16.581,0h8.544v22.1h-8.544v-22.1Zm-16.115,0h8.544v22.1h-8.544v-22.1Zm-16.591,0h8.534v22.1h-8.534v-22.1Zm-67.1,101.5V7875.8H245.993a117.8,117.8,0,0,0,12.531,12.08H129.384Zm276.61,0H392.721s1.67-1.64,2.121-2.17c32.537-37.2,16.089-64.76-7.494-85.44-8.45-7.41-17.717-13.79-25.843-19.43-11.09-7.68-20.006-13.84-20.748-17.82l-3.763-17.26-3.764,17.26c-0.742,3.98-9.658,10.14-20.747,17.82-8.127,5.64-17.393,12.02-25.843,19.43-23.584,20.68-40.031,48.24-7.5,85.44,0.452,0.53,2.122,2.17,2.122,2.17H267.992s-1.957-1.46-2.89-2.19c-32.34-25.19-30.655-45.91-15.961-64.86,9.35-12.08,23.917-23.79,38.6-35.56,17.9-14.37,39.349-28.88,49.178-44.99,0.026,0.04.047,0.07,0.074,0.12a0.851,0.851,0,0,1,.075-0.12c9.827,16.11,31.28,30.62,49.175,44.99,14.684,11.77,29.252,23.48,38.6,35.56,14.695,18.95,16.38,39.67-15.961,64.86C407.952,7886.42,405.994,7887.88,405.994,7887.88Zm138.61,0H415.464a117.978,117.978,0,0,0,12.53-12.08H544.6v12.08Z" transform="translate(-121 -7599)"/>
</svg>
