<?xml version="1.0" encoding="utf-8"?>
<!-- Generator: Adobe Illustrator 22.0.1, SVG Export Plug-In . SVG Version: 6.00 Build 0)  -->
<svg version="1.1" id="Layer_1" xmlns="http://www.w3.org/2000/svg" xmlns:xlink="http://www.w3.org/1999/xlink" x="0px" y="0px"
	 viewBox="0 0 107 29.9" style="enable-background:new 0 0 107 29.9;" xml:space="preserve">
<style type="text/css">
	.st0{fill:#A32829;}
</style>
<path id="LOGO" class="st0" d="M103,0.3c-0.4,0.2-0.8,0.6-1,1c-0.5,0.8-0.5,1.8,0,2.6c0.2,0.4,0.6,0.7,1,1c0.8,0.5,1.8,0.5,2.7,0
	c0.4-0.2,0.8-0.6,1-1c0.2-0.4,0.4-0.8,0.4-1.3c0-0.5-0.1-0.9-0.4-1.3c-0.2-0.4-0.6-0.7-1-1C104.8-0.1,103.8-0.1,103,0.3L103,0.3
	L103,0.3z M105.4,0.8c0.3,0.2,0.6,0.4,0.8,0.8c0.4,0.6,0.4,1.5,0,2.1c-0.2,0.3-0.5,0.6-0.8,0.8c-0.7,0.4-1.5,0.4-2.1,0
	c-0.3-0.2-0.6-0.4-0.8-0.8c-0.4-0.6-0.4-1.5,0-2.1c0.2-0.3,0.5-0.6,0.8-0.8C103.9,0.4,104.7,0.4,105.4,0.8L105.4,0.8L105.4,0.8z
	 M103.7,4V2.9h0.1c0.1,0,0.3,0,0.4,0.1c0.2,0.2,0.3,0.4,0.4,0.6l0.2,0.4h0.7l-0.3-0.6c-0.1-0.2-0.2-0.3-0.2-0.3
	C105,3,104.9,3,104.9,2.9c-0.1,0-0.1-0.1-0.2-0.1c0.2,0,0.4-0.1,0.6-0.3c0.1-0.1,0.2-0.3,0.2-0.5c0-0.1,0-0.3-0.1-0.4
	c-0.1-0.1-0.2-0.2-0.3-0.3c-0.1-0.1-0.3-0.1-0.4-0.1c-0.1,0-0.4,0-0.9,0h-0.6V4L103.7,4L103.7,4z M103.7,1.7h0.2c0.2,0,0.4,0,0.6,0
	c0.1,0,0.1,0.1,0.2,0.1c0,0.1,0.1,0.1,0.1,0.2c0,0.1,0,0.2-0.1,0.2c0,0.1-0.1,0.1-0.2,0.1c-0.2,0-0.4,0.1-0.6,0h-0.2L103.7,1.7
	L103.7,1.7L103.7,1.7z M73.4,28.9L71,18.2c-0.5,0.7-1,1.5-1.4,2.3c-0.4,0.7-0.6,1.4-0.8,2.2c-0.2,0.7-0.3,1.5-0.3,2.2
	c0,0.6,0.1,1.3,0.1,1.9c0.1,0.8,0.2,1.2,0.2,1.4v1.1c0,0.2-0.1,0.4-0.3,0.4c-0.2,0.1-0.3,0.1-0.5,0.1c-0.3,0-0.5,0-0.8-0.1
	c-0.1,0-0.3,0-0.6,0c-0.3,0-0.5,0-0.7,0c-0.2,0-0.4,0-0.5,0c-0.2,0-0.5-0.1-0.6-0.3c-0.2-0.4-0.2-0.8-0.2-1.2c0-0.9,0.1-1.8,0.4-2.7
	c0.3-0.8,0.6-1.5,1.1-2.2c0.4-0.6,1.1-1.5,1.9-2.6c0.6-0.8,1.2-1.6,1.7-2.5c0.3-0.6,0.5-1.2,0.5-1.9c0-0.6-1.3-0.5-1.6-0.5V15h6.2
	v0.9h-1.2l2.7,12.4L79,15.9h-1V15h5.8v0.9h-1.4l2.9,13h1.5v0.9H81v-0.9h1l-2.4-11.1l-2.1,11.1h1.1v0.9h-6.3v-0.9H73.4z M9.1,28.1
	V3.4H7c-0.5,0-1,0.1-1.4,0.3c-0.5,0.4-0.8,1-1,1.6c-0.4,1.3-0.8,2.6-1,3.9c-0.1,0.5-0.2,1.1-0.4,1.6c-0.1,0.3-0.4,0.4-0.6,0.4
	c-0.3,0-0.6-0.2-0.7-0.5c-0.1-0.4-0.2-0.9-0.2-1.4c0-1.2-0.2-2.4-0.6-3.5C0.9,5.6,0.7,5.1,0.4,4.3C0.2,3.8,0.1,3.2,0,2.7
	c0-0.4,0.1-0.8,0.4-1.1C0.6,1.3,1,1.1,1.4,1.2c0.3,0,0.6,0.1,0.9,0.2c0.5,0.1,0.9,0.2,1.4,0.3c0.7,0.1,1.3,0.1,2,0.1
	c0.2,0,0.4,0,0.6,0s0.4,0,0.5,0h9.5c0.1,0,0.3,0,0.6,0s0.4,0,0.6,0c0.7,0,1.3,0,2-0.1c0.5-0.1,0.9-0.2,1.4-0.3
	c0.3-0.1,0.6-0.2,0.9-0.2c0.4,0,0.8,0.1,1,0.5c0.2,0.3,0.4,0.7,0.4,1.1c-0.1,0.5-0.2,1.1-0.4,1.6c-0.3,0.7-0.5,1.3-0.6,1.7
	c-0.3,1.1-0.6,2.3-0.6,3.5c0,1.2-0.3,1.9-0.9,1.9c-0.2,0-0.5-0.1-0.6-0.3c-0.1-0.2-0.2-0.5-0.3-0.8c-0.1-0.3-0.2-1-0.5-2.3
	c-0.2-1.1-0.5-2.1-1-3c-0.2-0.5-0.7-1-1.2-1.2c-0.6-0.2-1.2-0.3-1.8-0.3h-1.4v24.7h2.7v1.7H6.5v-1.7L9.1,28.1L9.1,28.1z M57.7,25
	v0.9c1.9,0,0.8,1.2-0.1,2.2c-0.8,0.7-1.8,1-2.8,1c-0.3,0-0.5,0-0.8-0.1c0.1-0.4,0.2-0.7,0.2-1.1c0-0.6,0-1.1-0.1-1.7
	c-0.1-0.4-0.3-1-0.5-1.8c-0.2-0.8-0.4-1.6-0.5-2.4h10.1v-0.9l0,0c-0.2-1.8-0.6-4.1-2.2-5.2c-0.7-0.5-1.4-0.8-2.2-1
	c-1.9-0.5-3.9-0.3-5.7,0.4c-1.1,0.4-2.1,1.2-2.8,2.2c-0.8,1.2-1.2,2.6-1.1,4c0,0.5,0.1,1,0.2,1.5c0.1,0.5,0.4,1,0.7,1.4
	c0.5,0.7,1,1.3,1.5,2c0.4,0.4,0.7,0.9,1,1.4c0.2,0.4,0.3,0.9,0.3,1.4c0,0.1,0,0.3,0,0.6c0.5,0.2,1.1,0.3,1.7,0.3
	c0.7,0.1,1.3,0.1,1.9,0.1c0.9,0,1.7-0.2,2.5-0.5c0.8-0.4,1.6-0.8,2.2-1.5c1-0.9,1.1-2,2.4-2.1V25L57.7,25L57.7,25z M52.9,20.1
	c0-0.7,0.1-1.5,0.3-2.2c0.2-0.7,0.5-1.3,1-1.7c0.5-0.5,1.1-0.7,1.8-0.7c0.7-0.1,1.5,0.2,2,0.7c1,1.4,1.4,3.2,1.1,4.9h-6.2
	C52.9,20.7,52.9,20.4,52.9,20.1L52.9,20.1L52.9,20.1z M46.8,16.8c-0.5-0.7-1.1-1.2-1.9-1.5C44,14.9,43,14.7,42,14.7
	c-1.1,0-2.2,0.3-3.2,0.9c-0.9,0.6-1.6,1.4-2.1,2.4c0,1-0.1,2.1-0.1,3.2v6.3c0,1.6-1,1.4-1.8,1.4v0.9h6.9v-0.9
	c-0.6-0.1-1.8,0.3-1.8-1.4v-2.6l1.5-1.9c0.1,0,0.3,0.1,0.5,0.2c0.3,0.2,0.6,0.3,0.9,0.4c0.3,0.1,0.6,0.1,0.8,0.1
	c0.7,0,1.3-0.2,1.9-0.5c1.2-0.6,1.8-3.2,1.8-4.3C47.4,18.2,47.2,17.5,46.8,16.8L46.8,16.8L46.8,16.8z M43.2,21.7
	c-0.2,0.3-0.6,0.5-1,0.6c-0.1,0-0.2,0-0.4-0.1c-0.2-0.1-0.3-0.2-0.4-0.3L40,23.6v-4.1c0-0.7,0-1.3,0.1-2c0-0.5,0.2-0.9,0.5-1.4
	c0.3-0.4,0.7-0.6,1.2-0.6c0.6,0,1.2,0.3,1.4,0.9c0.3,0.8,0.4,1.6,0.4,2.4C43.7,19.9,43.5,20.8,43.2,21.7
	C43.2,21.7,43.2,21.7,43.2,21.7z M27.9,25v0.9c1.9,0,0.8,1.2-0.1,2.2c-0.8,0.7-1.8,1-2.8,1c-0.3,0-0.5,0-0.8-0.1
	c0.1-0.4,0.2-0.7,0.2-1.1c0-0.6,0-1.1-0.1-1.7c-0.1-0.4-0.3-1-0.5-1.8c-0.2-0.8-0.4-1.6-0.5-2.4h10.1v-0.9l0,0
	c-0.2-1.8-0.6-4.1-2.2-5.2c-0.7-0.5-1.4-0.8-2.2-1c-1.9-0.5-3.9-0.3-5.7,0.4c-1.1,0.4-2.1,1.2-2.8,2.2c-0.8,1.2-1.2,2.6-1.1,4
	c0,0.5,0.1,1,0.2,1.5c0.1,0.5,0.4,1,0.7,1.4c0.5,0.7,1,1.3,1.5,2c0.4,0.4,0.7,0.9,1,1.4c0.2,0.4,0.3,0.9,0.3,1.4c0,0.1,0,0.3,0,0.6
	c0.5,0.2,1.1,0.3,1.7,0.3c0.7,0.1,1.3,0.1,1.9,0.1c0.9,0,1.7-0.2,2.5-0.5c0.8-0.4,1.6-0.8,2.2-1.5c1-0.9,1.1-2,2.4-2.1V25H27.9z
	 M23.1,20.1c0-0.7,0.1-1.5,0.3-2.2c0.2-0.7,0.5-1.3,1-1.7c0.5-0.5,1.1-0.7,1.8-0.7c0.7-0.1,1.5,0.2,2,0.7c1,1.4,1.4,3.2,1.1,4.9
	h-6.2C23.1,20.7,23.1,20.4,23.1,20.1L23.1,20.1L23.1,20.1z M106.2,17c-0.3-0.5-0.9-0.7-1.5-0.7c-0.5,0.1-0.9,0.1-1.2,0.1
	c-1.2,0-2.3-0.3-3.3-0.9c-1.1-0.5-2.2-1.3-3-2.3l0-9.8h2.4l0-1.8H87c-0.6-0.1-1.1-0.2-1.6-0.3c-0.3-0.1-0.5-0.1-0.8-0.2
	c-0.3,0-0.6,0.1-0.8,0.3c-0.4,0.3-0.6,0.8-0.6,1.3c0.2,1,0.5,2,0.9,2.9c0.3,1,0.5,2,0.6,3c0,0.7,0.1,1.4,0.2,2
	c0.1,0.4,0.4,0.6,0.8,0.6c0.3,0,0.5-0.1,0.6-0.3c0.2-0.4,0.3-0.9,0.4-1.3c0.3-1.6,0.6-2.7,0.9-3.8c0.7-2.5,1.7-2.4,2.8-2.4h1.9
	l0,24.7h-2.7v1.7h15.2c0.3,0,0.6,0,1-0.2c0.3-0.2,0.5-0.4,0.6-0.8c0.2-0.6,0.2-1.3,0.2-1.9v-8C106.5,18.3,106.4,17.6,106.2,17
	L106.2,17L106.2,17z M102,25.8c0.1,0.7-0.1,1.4-0.6,1.9c-0.5,0.3-1,0.4-1.6,0.4h-2.6V15.4c0.9,1,2,1.9,3.3,2.4
	c0.5,0.1,0.9,0.4,1.3,0.8c0.2,0.4,0.3,0.9,0.2,1.4c0,0.3,0,0.5,0,0.5c0,0.2,0,0.3,0,0.5L102,25.8L102,25.8L102,25.8z"/>
</svg>
